<?xml version="1.0" encoding="UTF-8"?>
<svg id="Capa_2" xmlns="http://www.w3.org/2000/svg" version="1.1" viewBox="0 0 150.9 150.9">
  <!-- Generator: Adobe Illustrator 30.1.0, SVG Export Plug-In . SVG Version: 2.1.1 Build 136)  -->
  <defs>
    <style>
      .st0 {
        fill: #f7f7f7;
      }
    </style>
  </defs>
  <g id="Capa_1-2">
    <path class="st0" d="M0,75.5c0,41.6,33.9,75.5,75.5,75.5s75.5-33.9,75.5-75.5S117.1,0,75.5,0,0,33.9,0,75.5M106.7,53c1.6-3.5,4.9-5.3,8.5-4.5,3.7.8,6.4,4.1,6.4,7.8s-.3,2.4-.8,3.6c-.2.5-24.1,51.3-45.4,50.8-21.2.4-45.1-50.3-45.3-50.8-.5-1.2-.8-2.4-.8-3.6,0-3.7,2.7-7,6.4-7.8,3.6-.8,6.9,1,8.5,4.5,6.8,15.2,23.1,42.3,31.1,42.3s24.7-27.5,31.3-42.3"/>
  </g>
</svg>