<?xml version="1.0" encoding="UTF-8"?>
<svg id="Capa_2" xmlns="http://www.w3.org/2000/svg" version="1.1" viewBox="0 0 41.3 391.2">
  <!-- Generator: Adobe Illustrator 30.1.0, SVG Export Plug-In . SVG Version: 2.1.1 Build 136)  -->
  <defs>
    <style>
      .st0 {
        fill: #fff;
      }

      .st1 {
        isolation: isolate;
      }
    </style>
  </defs>
  <g id="Capa_1-2">
    <g class="st1">
      <g class="st1">
        <g class="st1">
          <path class="st0" d="M5.5,387v-9.5c0-2.5.6-4.4,1.7-5.7,1.1-1.3,2.7-2,4.6-2s2.9.4,3.9,1.2c1,.8,1.8,1.8,2.3,3,.3-2.1,1.1-3.7,2.3-4.8,1.2-1,2.7-1.5,4.4-1.5s2.9.4,4.1,1.1,2.2,1.8,2.9,3.2c.7,1.4,1.1,3.2,1.1,5.2v9.7H5.5ZM15.7,374.6c-1-.6-2.1-1-3.3-1-2.4,0-3.6,1.5-3.6,4.4v5.2h8.4v-5.4c0-1.5-.5-2.5-1.5-3.2ZM29.4,377c0-1.7-.4-2.9-1.3-3.9-.9-.9-2-1.4-3.6-1.4s-2.5.4-3.2,1.2-1,2.1-1,3.8v6.5h9.1v-6.2Z"/>
          <path class="st0" d="M30.7,352.1c-.6.2-1.3.3-2.1.4,1.5.5,2.6,1.4,3.4,2.5s1.2,2.5,1.2,4-.4,2.7-1.2,3.7c-.8,1-2,1.5-3.6,1.5s-2.5-.3-3.3-1c-.8-.6-1.4-1.4-1.8-2.3s-.8-2.1-1.3-3.7c-.4-1.2-.7-2.1-.9-2.8s-.6-1.2-1-1.7c-1.7,0-2.8.5-3.5,1.4s-1,2.1-1,3.6,0,1.6.2,2.4c.1.8.4,1.9.6,3.1h-3.2c-.7-2.1-1-4.1-1-5.9s.7-4.5,2-5.9c1.3-1.4,3.4-2.2,6.2-2.2h5.8c2.2,0,4.4-.1,6.4-.4v2.4c-.7.3-1.4.6-2,.7ZM29.6,360.1c.4-.4.6-1,.6-1.8s-.2-1.7-.7-2.6c-.5-.9-1.2-1.6-2.1-2.1-.9-.6-1.9-.8-3-.8h-1.5c.4.5.7,1.1.9,1.7.2.6.5,1.4.7,2.3.3.9.5,1.7.7,2.2.2.5.6,1,1,1.3.4.3,1,.5,1.7.5s1.3-.2,1.7-.6Z"/>
          <path class="st0" d="M15.6,333.7c0,.8.1,1.7.4,2.7s.7,1.9,1.2,2.8h15.5v3.6h-13.5c-2.4,0-4.5,0-6.5.3v-2.4c.9-.5,1.9-.9,3-1.1-1.1-.8-1.9-1.7-2.5-2.9-.6-1.2-.9-2.4-.9-3.8,0-2.1.6-3.8,1.9-5.1,1.2-1.3,3.2-1.9,5.8-1.9h12.8v3.6h-12.7c-2.9,0-4.4,1.4-4.4,4.2Z"/>
          <path class="st0" d="M30.5,318.3c-1.8,1.7-4.4,2.6-7.8,2.6s-4.1-.4-5.6-1.2c-1.6-.8-2.7-1.9-3.6-3.4-.8-1.5-1.2-3.2-1.2-5.1s.2-2.6.5-4.1h3.2c-.3,1.3-.4,2.5-.4,3.7,0,2.2.6,3.8,1.7,4.9,1.1,1.1,2.9,1.6,5.5,1.6s4.4-.5,5.4-1.6,1.6-2.7,1.6-4.9-.1-2.4-.3-3.7h3.1c.4,1.6.5,3,.5,4.2,0,2.9-.9,5.2-2.7,7Z"/>
          <path class="st0" d="M31.7,299.9c-.9,1.4-2.2,2.4-3.7,3.1s-3.3,1-5.1,1-3.7-.3-5.3-1.1c-1.6-.7-2.9-1.8-3.9-3.2-1-1.4-1.5-3.2-1.5-5.3s.5-3.7,1.4-5.1c.9-1.4,2.2-2.4,3.7-3.1,1.6-.7,3.3-1,5.1-1s3.7.3,5.3,1,2.9,1.8,3.9,3.2c1,1.4,1.5,3.2,1.5,5.3s-.5,3.7-1.4,5.1ZM28.1,290.3c-1.3-1-3.1-1.5-5.5-1.5s-4.2.5-5.4,1.5c-1.3,1-1.9,2.4-1.9,4.4s.6,3.3,1.9,4.3c1.3,1,3.1,1.5,5.5,1.5s4.2-.5,5.4-1.5c1.3-1,1.9-2.4,1.9-4.4s-.6-3.3-1.9-4.3Z"/>
          <path class="st0" d="M32.7,270.6H5.5v-8.4c0-3.1.6-5.7,1.8-7.7,1.2-2,2.9-3.5,4.9-4.4,2-.9,4.3-1.4,6.8-1.4s4.8.5,6.8,1.5,3.7,2.5,5,4.6c1.2,2.1,1.9,4.8,1.9,8v7.9ZM29.4,262.3c0-3.2-.8-5.6-2.5-7.2s-4.3-2.5-7.8-2.5-6.2.8-7.8,2.5c-1.7,1.6-2.5,4.1-2.5,7.3v4.4h20.6v-4.4Z"/>
        </g>
      </g>
      <g class="st1">
        <g class="st1">
          <path class="st0" d="M30.7,232.3c-.6.2-1.3.3-2.1.4,1.5.5,2.6,1.4,3.4,2.5.8,1.1,1.2,2.5,1.2,4s-.4,2.7-1.2,3.7c-.8,1-2,1.5-3.6,1.5s-2.5-.3-3.3-1c-.8-.6-1.4-1.4-1.8-2.3-.4-.9-.8-2.1-1.3-3.7-.4-1.2-.7-2.1-.9-2.8-.2-.7-.6-1.2-1-1.7-1.7,0-2.8.5-3.5,1.4-.6.9-1,2.1-1,3.6s0,1.6.2,2.4.4,1.9.6,3.1h-3.2c-.7-2.1-1-4.1-1-5.9s.7-4.5,2-5.9,3.4-2.2,6.2-2.2h5.8c2.2,0,4.4-.1,6.4-.4v2.4c-.7.3-1.4.6-2,.7ZM29.6,240.4c.4-.4.6-1,.6-1.8s-.2-1.7-.7-2.6c-.5-.9-1.2-1.6-2.1-2.1-.9-.6-1.9-.8-3-.8h-1.5c.4.5.7,1.1.9,1.7.2.6.5,1.4.7,2.3.3.9.5,1.7.7,2.2.2.5.6,1,1,1.3.4.3,1,.5,1.7.5s1.3-.2,1.7-.6Z"/>
        </g>
      </g>
      <g class="st1">
        <g class="st1">
          <path class="st0" d="M12.7,226.2v-3.6c2.1-.5,4.9-1.2,8.5-2.3,3.6-1.1,6.7-2,9.3-3-2.6-.9-5.7-1.9-9.3-3-3.5-1-6.4-1.8-8.5-2.3v-3.6c3.2.8,6.6,1.8,10.1,3,3.5,1.1,6.8,2.3,9.9,3.6v4.7c-5.8,2.4-12.5,4.6-20,6.5Z"/>
        </g>
      </g>
      <g class="st1">
        <g class="st1">
          <path class="st0" d="M8,202.7c-.4.5-1,.8-1.8.8s-1.4-.3-1.9-.8-.7-1.1-.7-1.8.2-1.2.7-1.8c.4-.5,1.1-.8,1.9-.8s1.4.3,1.8.8c.4.5.6,1.1.6,1.8s-.2,1.3-.6,1.8ZM15.5,202.7v3.3h-2.9v-6.9h20v3.6H15.5Z"/>
        </g>
      </g>
      <g class="st1">
        <g class="st1">
          <path class="st0" d="M12.7,195.1v-3.6c2.1-.5,4.9-1.2,8.5-2.3,3.6-1.1,6.7-2,9.3-3-2.6-.9-5.7-1.9-9.3-3-3.5-1-6.4-1.8-8.5-2.3v-3.6c3.2.8,6.6,1.8,10.1,3,3.5,1.1,6.8,2.3,9.9,3.6v4.7c-5.8,2.4-12.5,4.6-20,6.5Z"/>
        </g>
      </g>
      <g class="st1">
        <g class="st1">
          <path class="st0" d="M8,171.7c-.4.5-1,.8-1.8.8s-1.4-.3-1.9-.8-.7-1.1-.7-1.8.2-1.2.7-1.8c.4-.5,1.1-.8,1.9-.8s1.4.3,1.8.8c.4.5.6,1.1.6,1.8s-.2,1.3-.6,1.8ZM15.5,171.7v3.3h-2.9v-6.9h20v3.6H15.5Z"/>
          <path class="st0" d="M30.6,160.2c-1.7,1.8-4.3,2.8-7.8,2.8s-4.2-.4-5.8-1.3c-1.6-.9-2.8-2-3.6-3.3-.8-1.4-1.2-2.8-1.2-4.4,0-2.6.8-4.5,2.3-5.8,1.5-1.3,3.5-2,6-2s1.5,0,2.4.2v13.1c2.5,0,4.2-.6,5.3-1.8,1-1.2,1.5-2.9,1.5-5s-.3-3.5-.8-6.1h3.1c.7,2.3,1,4.4,1,6.4,0,3-.8,5.5-2.5,7.3ZM20.4,149.7h-.2c-1.4,0-2.6.3-3.5,1-.9.7-1.4,1.8-1.4,3.3s.4,2.5,1.2,3.4c.8.9,2.1,1.5,3.9,1.8v-9.6Z"/>
          <path class="st0" d="M15.6,131.7c0,.8.1,1.7.4,2.7.3,1,.7,1.9,1.2,2.8h15.5v3.6h-13.5c-2.4,0-4.5,0-6.5.3v-2.4c.9-.5,1.9-.9,3-1.1-1.1-.8-1.9-1.7-2.5-2.9-.6-1.2-.9-2.4-.9-3.8,0-2.1.6-3.8,1.9-5.1,1.2-1.3,3.2-1.9,5.8-1.9h12.8v3.6h-12.7c-2.9,0-4.4,1.4-4.4,4.2Z"/>
          <path class="st0" d="M30.4,116.9c-1.8,1.3-4.2,1.9-7.2,1.9s-4.6-.5-6.3-1.4c-1.6-.9-2.8-2.1-3.6-3.5-.8-1.4-1.1-3-1.1-4.6s.4-3,1.2-4.3H4.1v-3.6h22.2c2.3,0,4.4-.1,6.5-.4v2.4c-.7.3-1.3.5-1.9.7-.5.2-1.2.3-1.9.5,1.2.6,2.2,1.4,3,2.5.8,1.1,1.2,2.5,1.2,4.1,0,2.5-.9,4.4-2.7,5.7ZM29.8,110.4c0-1-.2-2-.7-3-.5-1-1.1-1.8-1.9-2.4h-11.1c-.5,1.4-.8,2.8-.8,4.2s.6,3.3,1.8,4.4c1.2,1.1,3.3,1.6,6.2,1.6,4.3,0,6.5-1.6,6.5-4.9Z"/>
          <path class="st0" d="M30.7,84.3c-.6.2-1.3.3-2.1.4,1.5.5,2.6,1.4,3.4,2.5s1.2,2.5,1.2,4-.4,2.7-1.2,3.7c-.8,1-2,1.5-3.6,1.5s-2.5-.3-3.3-1c-.8-.6-1.4-1.4-1.8-2.3-.4-.9-.8-2.1-1.3-3.7-.4-1.2-.7-2.1-.9-2.8-.2-.7-.6-1.2-1-1.7-1.7,0-2.8.5-3.5,1.4-.6.9-1,2.1-1,3.6s0,1.6.2,2.4.4,1.9.6,3.1h-3.2c-.7-2.1-1-4.1-1-5.9s.7-4.5,2-5.9c1.3-1.4,3.4-2.2,6.2-2.2h5.8c2.2,0,4.4-.1,6.4-.4v2.4c-.7.3-1.4.6-2,.7ZM29.6,92.4c.4-.4.6-1,.6-1.8s-.2-1.7-.7-2.6c-.5-.9-1.2-1.6-2.1-2.1-.9-.6-1.9-.8-3-.8h-1.5c.4.5.7,1.1.9,1.7.2.6.5,1.4.7,2.3.3.9.5,1.7.7,2.2.2.5.6,1,1,1.3.4.3,1,.5,1.7.5s1.3-.2,1.7-.6Z"/>
        </g>
      </g>
      <g class="st1">
        <g class="st1">
          <path class="st0" d="M31.7,68.4h-3.4c1-2.4,1.5-4.7,1.5-7.1s-.4-3.5-1.1-4.7c-.7-1.2-1.8-1.8-3.2-1.8s-1.4.2-2,.7c-.6.5-1.1,1.1-1.5,1.8-.4.7-.9,1.7-1.5,3-.7,1.6-1.4,2.9-2,3.9-.6,1-1.4,1.9-2.4,2.6-1,.7-2.2,1.1-3.6,1.1-2.6,0-4.5-1-5.7-2.9-1.2-1.9-1.8-4.4-1.8-7.3s.2-3.6.6-5.7h3.4c-.5,2.2-.7,4.2-.7,5.8s.3,3.5.9,4.6c.6,1.1,1.6,1.7,2.9,1.7s1.4-.2,2-.7c.6-.5,1.1-1.1,1.5-1.8.4-.7.9-1.7,1.5-3,.7-1.6,1.4-3,2-4,.6-1,1.4-1.9,2.4-2.6,1-.7,2.2-1.1,3.7-1.1,2.6,0,4.6,1,5.9,2.9,1.3,1.9,1.9,4.3,1.9,7.2s-.5,5.1-1.4,7.3Z"/>
        </g>
      </g>
      <g class="st1">
        <g class="st1">
          <path class="st0" d="M32.3,45.3c-.5.5-1.2.8-2,.8s-1.5-.3-2-.8c-.5-.5-.8-1.2-.8-2s.3-1.5.8-2c.5-.5,1.2-.8,2-.8s1.5.3,2,.8c.5.5.8,1.2.8,2s-.3,1.5-.8,2Z"/>
          <path class="st0" d="M5.5,27.1v-4.7c7.8-3.2,16.9-6.1,27.2-8.8v3.7c-2.3.5-4.6,1.1-6.9,1.7v11.6c2.3.6,4.6,1.2,6.9,1.7v3.7c-10.3-2.7-19.4-5.6-27.2-8.8ZM22.7,19.8c-4.7,1.3-9.7,2.9-15,4.9,5.3,2,10.3,3.6,15,4.9v-9.9Z"/>
        </g>
      </g>
      <g class="st1">
        <g class="st1">
          <path class="st0" d="M32.3,8.3c-.5.5-1.2.8-2,.8s-1.5-.3-2-.8c-.5-.5-.8-1.2-.8-2s.3-1.5.8-2c.5-.5,1.2-.8,2-.8s1.5.3,2,.8c.5.5.8,1.2.8,2s-.3,1.5-.8,2Z"/>
        </g>
      </g>
    </g>
  </g>
</svg>