<svg width="1920" height="430" viewBox="0 0 1920 430" fill="none" xmlns="http://www.w3.org/2000/svg">
<g clip-path="url(#clip0_28_14)">
<rect width="1920" height="430" fill="url(#paint0_linear_28_14)"/>
<mask id="mask0_28_14" style="mask-type:luminance" maskUnits="userSpaceOnUse" x="1110" y="-918" width="1622" height="1696">
<path d="M2696.78 232.444C2651.74 169.275 2570.88 149.266 2505.57 185.177C2210.34 329.024 1593.69 537.781 1470.03 423.948C1346.4 310.131 1450.32 -358.711 1543.25 -700.72C1567.18 -774.823 1536.81 -857.309 1471.52 -895.501C1404.29 -935.282 1320.86 -920.732 1270.47 -860.452C1254.38 -840.105 1242.59 -816.294 1235.85 -790.59C1232.68 -779.2 935.823 380.364 1268.4 673.838C1590.95 983.467 2624.09 501.718 2634.21 496.716C2657.08 485.867 2677.43 469.948 2693.97 450.023C2742.44 387.834 2743.59 297.608 2696.76 232.444H2696.78Z" fill="white"/>
</mask>
<g mask="url(#mask0_28_14)">
<path opacity="0.8" d="M1747.69 -1766.24L218.508 4.78687L1995.71 1540.52L3524.89 -230.508L1747.69 -1766.24Z" fill="#F5232E"/>
</g>
<mask id="mask1_28_14" style="mask-type:luminance" maskUnits="userSpaceOnUse" x="-414" y="-401" width="923" height="718">
<path d="M413.048 -400.419C375.107 -397.732 346.052 -369.02 344.362 -332.5C328.956 -172.159 258.447 139.295 179.22 161.907C99.9772 184.518 -153.074 -30.1205 -272.285 -156.527C-297.134 -185.51 -339.4 -193.909 -372.07 -176.35C-405.906 -158.386 -421.177 -119.755 -408.862 -83.252C-404.47 -71.3211 -397.527 -60.2858 -388.506 -50.8898C-384.553 -46.648 24.3152 374.28 232.111 310.215C444.113 254.481 507.038 -301.101 507.545 -306.61C508.863 -318.947 507.41 -331.554 503.322 -343.569C489.723 -379.768 452.289 -403.325 413.065 -400.402L413.048 -400.419Z" fill="white"/>
</mask>
<g mask="url(#mask1_28_14)">
<path opacity="0.8" d="M431.476 -865.39L-665.392 -514.773L-316.267 578.299L780.601 227.682L431.476 -865.39Z" fill="#F5232E"/>
</g>
</g>
<defs>
<linearGradient id="paint0_linear_28_14" x1="960" y1="0" x2="960" y2="430" gradientUnits="userSpaceOnUse">
<stop stop-color="#ED1C27"/>
<stop offset="0.35" stop-color="#E01E26"/>
<stop offset="0.7" stop-color="#B62025"/>
<stop offset="1" stop-color="#8D191B"/>
</linearGradient>
<clipPath id="clip0_28_14">
<rect width="1920" height="430" fill="white"/>
</clipPath>
</defs>
</svg>
