<?xml version="1.0" encoding="UTF-8"?>
<svg id="Capa_2" data-name="Capa 2" xmlns="http://www.w3.org/2000/svg" xmlns:xlink="http://www.w3.org/1999/xlink" viewBox="0 0 203.79 203.79">
  <defs>
    <style>
      .cls-1 {
        fill: #fff;
      }

      .cls-2 {
        fill: url(#Degradado_sin_nombre_17);
      }
    </style>
    <linearGradient id="Degradado_sin_nombre_17" data-name="Degradado sin nombre 17" x1="12.18" y1="2.52" x2="169.55" y2="176.83" gradientTransform="translate(203.79 203.79) rotate(-180)" gradientUnits="userSpaceOnUse">
      <stop offset="0" stop-color="#ed1c27"/>
      <stop offset=".26" stop-color="#e31d26"/>
      <stop offset=".33" stop-color="#e01e26"/>
      <stop offset=".5" stop-color="#c91f25"/>
      <stop offset=".63" stop-color="#b62025"/>
      <stop offset="1" stop-color="#8d191b"/>
    </linearGradient>
  </defs>
  <g id="Capa_1-2" data-name="Capa 1">
    <g>
      <rect class="cls-2" width="203.79" height="203.79" rx="34.5" ry="34.5" transform="translate(203.79 203.79) rotate(180)"/>
      <path class="cls-1" d="M159.77,77.49c-3.65-3.07-9.77-7.66-11.93-9.26.26-2.78.77-5.79,1.41-8.36.79-3.12,1.54-6.07-.11-8.19-1.12-1.43-3-2.1-5.92-2.1h-10.08c-2.5,0-4.34.75-5.46,2.22-.65.85-1.01,1.89-1.06,3.06-10.61-5.69-19.54-8.94-24.73-8.96-5.68.03-16.2,4.09-28.14,10.86-1.8,1.02-11.98,7.01-17.01,10.89-1.4,1.02-8.59,6.27-12.7,9.73-8.28,6.98-8.52,12.24-7.27,15.42,1.89,4.8,8.63,7.63,17.19,7.22l1.91-.1c-.42,3.69-1.92,9.83-6.97,16.6-6.71,8.03-7.7,17.75-2.65,26.03,5.76,9.43,19.93,17.09,38.67,13.05,5.39,1.68,13.24,2.31,16.99,2.31s11.61-.63,16.99-2.31c18.74,4.04,32.91-3.62,38.67-13.05,5.05-8.27,4.07-17.99-2.59-25.94-5.09-6.83-6.61-12.99-7.03-16.68l1.91.1c8.57.42,15.32-2.39,17.21-7.17,1.24-3.16.99-8.39-7.27-15.35ZM150.03,96.27l-4.75-.24c-.33-.03-.66.1-.9.34-.24.23-.37.56-.36.89l.02.73c.1,3.96,1.26,11.93,7.98,20.94,5.72,6.83,6.57,14.73,2.33,21.67-5.12,8.39-17.97,15.12-35.15,11.23l-.18-.04c-.21-.05-.44-.04-.65.03l-.18.06c-4.96,1.66-12.63,2.28-16.31,2.28-3.94,0-11.61-.71-16.3-2.28l-.18-.06c-.12-.04-.25-.06-.38-.06-.09,0-.18,0-.26.03l-.18.04c-17.18,3.88-30.03-2.85-35.15-11.23-4.24-6.94-3.38-14.84,2.39-21.75,6.67-8.93,7.83-16.9,7.92-20.86l.02-.73c0-.33-.12-.66-.36-.89s-.56-.36-.9-.34l-4.75.24c-6.7.33-12.25-1.66-13.51-4.85-1.12-2.84,1.14-6.91,6.2-11.18,4.44-3.73,12.48-9.56,12.59-9.64,4.8-3.7,14.79-9.58,16.56-10.59,11.41-6.47,21.24-10.35,26.3-10.37,5.07.02,14.9,3.9,26.31,10.37l1.39.79c.42.24.94.2,1.32-.09.38-.29.55-.79.43-1.25l-.4-1.55c-.1-.37-.21-.75-.34-1.2l-.04-.13c-.3-1.09-.26-2.02.1-2.5.47-.62,1.61-.74,2.48-.74h10.08c2.21,0,2.81.46,2.96.66.53.67-.05,2.96-.57,4.98-.77,3.1-1.36,6.75-1.6,10.02l-.03.37c-.03.41.15.81.49,1.05l.34.25c1.38,1.02,8.49,6.29,12.54,9.7,5.05,4.25,7.31,8.3,6.2,11.11-1.25,3.19-6.81,5.17-13.53,4.8Z"/>
    </g>
  </g>
</svg>