<?xml version="1.0" encoding="UTF-8"?>
<svg id="Capa_2" data-name="Capa 2" xmlns="http://www.w3.org/2000/svg" viewBox="0 0 245.9 232.04">
  <defs>
    <style>
      .cls-1 {
        stroke: #e30518;
        stroke-width: .23px;
      }

      .cls-1, .cls-2, .cls-3, .cls-4, .cls-5, .cls-6 {
        fill-rule: evenodd;
      }

      .cls-1, .cls-7 {
        stroke-miterlimit: 3.86;
      }

      .cls-1, .cls-4 {
        fill: #e30518;
      }

      .cls-2 {
        fill: #ffe000;
      }

      .cls-8, .cls-3 {
        fill: #1d1d1b;
      }

      .cls-9 {
        fill: #fff;
      }

      .cls-7 {
        stroke: #1d1d1b;
        stroke-width: .35px;
      }

      .cls-7, .cls-6 {
        fill: #007ac0;
      }

      .cls-5 {
        fill: #f49800;
      }
    </style>
  </defs>
  <g id="Capa_1-2" data-name="Capa 1">
    <g>
      <path class="cls-9" d="M0,0h206.47c30.46,64.09,53.17,135.72,29.76,173.41-28.99,51.12-151.29,60.32-236.23,58.4V0Z"/>
      <g>
        <path class="cls-1" d="M63.47,107.8c.3,2.61.07,13.48-9.99,28.42-10.43,16.48,6.06,43.99,39.3,37.01,7.28,2.62,15.16,3,20.26,2.95,5.1.05,13.07-.28,20.35-2.9,33.24,6.98,49.64-20.58,39.21-37.06-10.06-14.93-10.29-25.81-9.99-28.42H63.47Z"/>
        <path class="cls-6" d="M113.04,176.02c-32.48-.83-38.38-15.77-29.4-18.91,5.21-1.82,12.07-4.87,12.07-4.87-3.46-16.87,2.26-38.39,17.42-38.37,15.16-.02,20.69,22.19,17.25,38.73,0,0,6.92,2.5,12.06,4.51,8.44,3.32,3.08,18.08-29.4,18.91Z"/>
        <path class="cls-2" d="M100.8,164.14c-8.69-23.27-1.06-46.62,12.24-46.57,12.67.09,21.25,21.99,12.32,46.64,0,0-4.22-.96-12.76-.96-6.34,0-11.79.89-11.79.89Z"/>
        <path class="cls-5" d="M113.04,176.27c13.08,0,23.37-2.81,23.37-6.71s-10.29-6.71-23.37-6.71-23.38,2.81-23.38,6.71,10.29,6.71,23.38,6.71Z"/>
        <g>
          <g>
            <path class="cls-7" d="M69.81,119.7h15.71c2.49,0,4.51,2.02,4.51,4.51v10.59c0,2.49-2.02,4.51-4.51,4.51h-15.71c-2.49,0-4.51-2.02-4.51-4.51v-10.59c0-2.49,2.02-4.51,4.51-4.51Z"/>
            <path class="cls-8" d="M71.61,122.24h12.44c1.87,0,3.4,1.52,3.4,3.4v7.73c0,1.87-1.52,3.4-3.4,3.4h-12.44c-1.87,0-3.39-1.52-3.39-3.39v-7.73c0-1.87,1.52-3.39,3.39-3.39Z"/>
            <path class="cls-2" d="M87.45,131.42c-5.62-.56-7.57-7.14-8.05-9.19h4.65c1.87,0,3.4,1.52,3.4,3.39v5.79Z"/>
            <path class="cls-2" d="M76.33,122.24c-.36,1.87-2.13,8.92-8.12,9.21v-5.82c0-1.88,1.52-3.39,3.39-3.39h4.73Z"/>
          </g>
          <g>
            <path class="cls-7" d="M140.55,119.7h15.71c2.49,0,4.51,2.02,4.51,4.51v10.59c0,2.49-2.02,4.51-4.51,4.51h-15.7c-2.49,0-4.51-2.02-4.51-4.51v-10.59c0-2.49,2.02-4.5,4.5-4.5Z"/>
            <path class="cls-8" d="M142.35,122.24h12.44c1.87,0,3.4,1.52,3.4,3.4v7.73c0,1.87-1.52,3.39-3.39,3.39h-12.45c-1.87,0-3.39-1.52-3.39-3.39v-7.73c0-1.87,1.52-3.39,3.39-3.39Z"/>
            <path class="cls-2" d="M158.19,131.42c-5.62-.56-7.57-7.14-8.05-9.19h4.65c1.88,0,3.4,1.52,3.4,3.39v5.79Z"/>
            <path class="cls-2" d="M147.08,122.24c-.36,1.87-2.13,8.92-8.12,9.21v-5.82c0-1.88,1.52-3.39,3.39-3.39h4.73Z"/>
          </g>
        </g>
        <path class="cls-4" d="M145.54,67.02c-1.67-5.63-1.96-8.47,3.2-8.48h11.4c6.87-.13,4.04,5.24,3.37,10.51-.88,6.95-.88,9.04-.88,9.04,0,0-17.05-10.98-17.08-11.07Z"/>
        <path class="cls-5" d="M112.98,107.27c-16.92.02-40.22,1.47-55.17,2.62-11.48.88-20.35-7.86-12.71-16.13,16.25-17.59,55.96-39.84,68-39.84,12.79,0,51.75,22.24,68,39.84,7.64,8.27-.07,16.13-11.58,16.13-12.85,0-39.62-2.6-56.54-2.62Z"/>
        <g>
          <path class="cls-3" d="M122.14,146.75c0-1.25.99-2.27,2.21-2.27s2.21,1.01,2.21,2.27-.99,2.27-2.21,2.27-2.21-1.02-2.21-2.27Z"/>
          <path class="cls-3" d="M113.05,162.5c-6.73,0-12.2,1.01-12.2,1.01-8.04-23.45-.67-45.54,12.2-45.54s20.25,22.13,12.2,45.54c0,0-5.2-1.01-12.2-1.01ZM124.96,164.34c6.65,1.07,11.1,3,11.1,5.23,0,3.39-10.3,6.14-23,6.14s-23.04-2.75-23.04-6.14c0-2.23,4.43-4.17,11.11-5.23,0,0,7.25-.87,11.91-.87,4.66,0,11.92.88,11.92.88ZM125.94,163.63c8.45-24.33.25-46.68-12.89-46.63-13.15-.05-21.34,22.3-12.89,46.63-6.51,1.26-10.83,3.45-10.83,5.93,0,.79.43,1.55,1.26,2.26-10.95-4.82-11.96-12.66-5.98-14.78,5.19-1.84,11.53-4.3,11.53-4.3-3.35-16.38,1.81-38.35,16.91-38.35,15.1,0,20.27,21.97,16.91,38.35,0,0,6.3,2.56,11.53,4.3,5.88,1.96,5.01,9.86-5.89,14.73.77-.69,1.18-1.44,1.18-2.21,0-2.49-4.32-4.67-10.83-5.93ZM146.36,66.72c-1.31-5.14-1.33-7.28,3.11-7.28h9.74c6.48-.11,3.83,4.9,3.24,9.88-.36,3.03-.59,5.44-.68,7.31-5.2-3.64-10.41-6.97-15.42-9.9ZM135.01,173.04c31.17,5.28,46.43-20.87,36.42-36.68-7.69-11.42-9.52-21.05-9.82-25.95-20.44-1.08-34.49-2.07-48.57-2.27-14.08.2-28.14,1.19-48.57,2.27-.3,4.9-2.12,14.53-9.82,25.96-10,15.81,5.25,41.96,36.43,36.68-13.24-5-14.86-13.56-7.79-16.28,5.15-1.99,12.07-4.51,12.07-4.51-3.46-16.87,2.52-39.12,17.68-39.1,15.16-.02,21.14,22.22,17.68,39.1,0,0,6.92,2.53,12.07,4.51,7.07,2.73,5.44,11.28-7.78,16.28ZM113.07,106.05c-17.55.25-34.22,1.48-53.82,2.75-12.16.78-18.99-7.34-11.32-15.73,11.29-12.35,49.84-37.79,65.12-37.79s53.84,25.44,65.12,37.79c7.67,8.39.84,16.51-11.32,15.73-19.6-1.26-36.23-2.5-53.77-2.75ZM144.09,65.4c-.12-.5-.27-1.01-.41-1.51-.84-3.03-.09-6.4,5.15-6.4h11.35c6.7,0,5.95,4.61,4.81,9.09-.81,3.19-1.48,7.24-1.76,11.06,0,0,9.31,6.84,14.45,11.18,16.28,13.72,5.67,22.69-9.84,21.91-1.57-.08-3.09-.15-4.59-.23.11,4.57,1.46,12.98,8.6,22.56,18.02,21.53-5.83,48.58-39.53,40.97-5.55,1.86-14.4,2.71-19.28,2.71s-13.72-.85-19.28-2.71c-33.7,7.61-57.55-19.44-39.53-40.97,7.14-9.58,8.49-17.99,8.6-22.56l-4.59.23c-15.51.78-26.12-8.19-9.84-21.91,24.15-20.35,53.37-35.48,64.63-35.54,6.19.03,17.84,4.62,31.04,12.12Z"/>
        </g>
      </g>
    </g>
  </g>
</svg>