<?xml version="1.0" encoding="UTF-8"?>
<svg id="Capa_2" data-name="Capa 2" xmlns="http://www.w3.org/2000/svg" viewBox="0 0 342.25 33.59">
  <defs>
    <style>
      .cls-1, .cls-2, .cls-3, .cls-4, .cls-5 {
        fill-rule: evenodd;
      }

      .cls-1, .cls-6 {
        fill: #1d1d1b;
      }

      .cls-2 {
        fill: #f39700;
      }

      .cls-3 {
        fill: #ffe000;
      }

      .cls-4 {
        fill: #007abf;
      }

      .cls-5, .cls-7 {
        fill: #e20518;
      }
    </style>
  </defs>
  <g id="Capa_1-2" data-name="Capa 1">
    <g>
      <path class="cls-7" d="M65.15,28.86c5.36,1.13,18.6.79,18.9-7.89,0-3.48-4.48-6.73-8.75-7.66-5.23-1.15-8.59-1.16-13.89,0-3.26,1.25-4.29-1.95-1.31-3.04,5.64-2.06,27.62-2.5,28.66,10.7-.91,13.02-20.1,12.1-24.43,11.23-1.71-.34-3.01-1.13-3.01-3.31v-10.85c0-2.57,3.83-2.55,3.83.02v10.79Z"/>
      <path class="cls-7" d="M106.44,13.55c-4.28,0-11.48,13.05-13.6,17.73-1.27,2.8-5.28.81-4.01-2,2.27-5.04,10.86-20.23,17.57-20.1,6.71-.13,15.3,15.06,17.57,20.1,1.27,2.8-2.74,4.8-4.01,2-2.12-4.68-9.25-17.73-13.53-17.73"/>
      <path class="cls-7" d="M136.38,28.28c4.28,0,11.48-13.05,13.6-17.73,1.27-2.81,5.28-.81,4.01,2-2.27,5.04-10.86,20.23-17.57,20.1-6.71.13-15.3-15.06-17.57-20.1-1.27-2.81,2.74-4.8,4.01-2,2.11,4.68,9.25,17.73,13.53,17.73"/>
      <path class="cls-7" d="M161.2,11.44v19.03c0,2.84-4.3,2.73-4.3-.11V11.38c0-2.94,4.3-2.95,4.3.05"/>
      <path class="cls-7" d="M181.74,28.28c4.28,0,11.48-13.05,13.6-17.73,1.27-2.81,5.27-.81,4.01,2-2.27,5.04-10.86,20.23-17.57,20.1-6.71.13-15.3-15.06-17.57-20.1-1.27-2.81,2.74-4.8,4.01-2,2.11,4.68,9.25,17.73,13.53,17.73"/>
      <path class="cls-7" d="M214.77,22.87c1.26,2.66,4.85,4.83,8.32,5.59,5.23,1.14,8.59,1.16,13.89,0,3.17-1.03,4.28,2.04,1.29,3.04-5.89,1.98-27.47,2.69-28.75-10.53.71-12.6,17.95-12.27,24.53-11.41,3.22.42,2.56,3.83-.8,3.13-4.42-.59-16.38-1.29-18.72,6.64h12.28c1.92.01,1.92,3.54,0,3.54h-12.04Z"/>
      <path class="cls-7" d="M283.17,28.86c5.36,1.13,18.6.79,18.9-7.89,0-3.48-4.48-6.73-8.75-7.66-5.23-1.15-8.58-1.16-13.89,0-3.26,1.25-4.29-1.95-1.31-3.04,5.65-2.06,27.63-2.5,28.67,10.7-.91,13.02-20.1,12.1-24.43,11.23-1.71-.34-3.01-1.13-3.01-3.31v-10.85c0-2.57,3.83-2.55,3.83.02v10.79Z"/>
      <path class="cls-7" d="M324.47,13.55c-4.28,0-11.49,13.05-13.6,17.73-1.27,2.8-5.28.81-4.01-2,2.27-5.04,10.86-20.23,17.57-20.1,6.71-.13,15.3,15.06,17.57,20.1,1.27,2.8-2.74,4.8-4.01,2-2.12-4.68-9.25-17.73-13.53-17.73"/>
      <path class="cls-7" d="M206.55,11.44v19.03c0,2.84-4.29,2.73-4.29-.11V11.38c0-2.94,4.29-2.95,4.29.05"/>
      <path class="cls-7" d="M258.22,24.8c-2.65-4.87-5.58-11.31-7.6-11.45-4.94-.03-2.7,9.76-2.8,17.39-.03,2.69-4.29,2.68-4.3-.29,0-9.73-2.08-21.33,7.2-21.33,2.72,0,5.3,4.07,7.61,7.9,2.66,4.87,5.82,11.33,7.84,11.47,4.94.02,2.59-9.57,2.68-17.2.03-2.69,4.3-2.69,4.3.3,0,9.73,2.2,21.13-7.08,21.13-2.73,0-5.54-4.08-7.85-7.92"/>
      <path class="cls-5" d="M6.31,14.83c.08.71.02,3.67-2.72,7.73-2.84,4.48,1.65,11.97,10.69,10.07,1.98.71,4.13.81,5.51.8,1.39.01,3.56-.08,5.54-.79,9.04,1.9,13.5-5.6,10.67-10.08-2.74-4.06-2.8-7.02-2.72-7.73H6.31Z"/>
      <path class="cls-4" d="M19.8,33.39c-8.84-.23-10.44-4.29-7.99-5.14,1.42-.5,3.28-1.33,3.28-1.33-.94-4.59.61-10.44,4.74-10.44,4.12,0,5.63,6.04,4.69,10.54,0,0,1.88.68,3.28,1.23,2.3.9.84,4.92-8,5.14"/>
      <path class="cls-3" d="M16.47,30.15c-2.33-6.45-.29-12.67,3.33-12.66,3.45.03,5.78,5.98,3.35,12.69,0,0-1.15-.26-3.47-.26-1.72,0-3.21.23-3.21.23"/>
      <path class="cls-2" d="M19.8,33.45c3.56,0,6.36-.76,6.36-1.83s-2.8-1.82-6.36-1.82-6.36.76-6.36,1.82,2.8,1.83,6.36,1.83"/>
      <path class="cls-4" d="M8.04,18.07h4.27c.68,0,1.23.55,1.23,1.23v2.88c0,.68-.55,1.23-1.23,1.23h-4.27c-.68,0-1.23-.55-1.23-1.23v-2.88c0-.68.55-1.23,1.23-1.23"/>
      <path class="cls-6" d="M12.31,23.51h-4.27c-.74,0-1.34-.6-1.34-1.34v-2.88c0-.74.6-1.34,1.34-1.34h4.27c.74,0,1.34.6,1.34,1.34v2.88c0,.74-.6,1.34-1.34,1.34M8.04,18.18c-.61,0-1.12.5-1.12,1.11v2.88c0,.61.5,1.11,1.12,1.11h4.27c.61,0,1.11-.5,1.11-1.11v-2.88c0-.61-.5-1.11-1.11-1.11h-4.27Z"/>
      <path class="cls-6" d="M8.53,18.76h3.38c.51,0,.93.41.93.93v2.1c0,.51-.41.92-.92.92h-3.39c-.51,0-.92-.41-.92-.92v-2.1c0-.51.41-.92.92-.92Z"/>
      <path class="cls-3" d="M12.84,21.26c-1.53-.15-2.06-1.94-2.19-2.5h1.27c.51,0,.92.41.92.92v1.58Z"/>
      <path class="cls-3" d="M9.81,18.76c-.1.51-.58,2.43-2.21,2.51v-1.58c0-.51.41-.92.92-.92h1.29Z"/>
      <path class="cls-4" d="M27.28,18.07h4.27c.68,0,1.23.55,1.23,1.23v2.88c0,.68-.55,1.23-1.23,1.23h-4.27c-.68,0-1.23-.55-1.23-1.23v-2.88c0-.68.55-1.23,1.23-1.23"/>
      <path class="cls-6" d="M31.56,23.51h-4.27c-.74,0-1.34-.6-1.34-1.34v-2.88c0-.74.6-1.34,1.34-1.34h4.27c.74,0,1.34.6,1.34,1.34v2.88c0,.74-.6,1.34-1.34,1.34M27.28,18.18c-.61,0-1.11.5-1.11,1.11v2.88c0,.61.5,1.11,1.11,1.11h4.27c.61,0,1.11-.5,1.11-1.11v-2.88c0-.61-.5-1.11-1.11-1.11h-4.27Z"/>
      <path class="cls-6" d="M27.77,18.76h3.38c.51,0,.93.41.93.93v2.1c0,.51-.41.92-.92.92h-3.39c-.51,0-.92-.41-.92-.92v-2.1c0-.51.41-.92.92-.92Z"/>
      <path class="cls-3" d="M32.08,21.26c-1.53-.15-2.06-1.94-2.19-2.5h1.27c.51,0,.92.41.92.92v1.58Z"/>
      <path class="cls-3" d="M29.06,18.76c-.1.51-.58,2.43-2.21,2.51v-1.58c0-.51.41-.92.92-.92h1.29Z"/>
      <path class="cls-5" d="M28.64,3.74c-.46-1.53-.53-2.3.87-2.31h3.1c1.87-.04,1.1,1.42.92,2.86-.24,1.89-.24,2.46-.24,2.46,0,0-4.64-2.99-4.65-3.01"/>
      <path class="cls-2" d="M19.78,14.69c-4.6,0-10.94.4-15.01.71-3.12.24-5.54-2.14-3.46-4.39C5.74,6.22,16.54.18,19.81.18c3.48,0,14.08,6.05,18.5,10.84,2.08,2.25-.02,4.39-3.15,4.39-3.49,0-10.78-.71-15.38-.71"/>
      <path class="cls-1" d="M22.28,25.43c0-.34.27-.62.6-.62s.6.27.6.62-.27.62-.6.62-.6-.28-.6-.62"/>
      <path class="cls-1" d="M19.8,29.71c-1.83,0-3.32.27-3.32.27-2.19-6.38-.18-12.39,3.32-12.39s5.51,6.02,3.32,12.39c0,0-1.42-.27-3.32-.27M23.04,30.21c1.81.29,3.02.82,3.02,1.42,0,.92-2.8,1.67-6.26,1.67s-6.27-.75-6.27-1.67c0-.6,1.21-1.13,3.02-1.42,0,0,1.97-.24,3.24-.24s3.24.24,3.24.24M23.31,30.02c2.3-6.62.07-12.7-3.51-12.68-3.58-.01-5.81,6.06-3.51,12.68-1.77.35-2.95.94-2.95,1.61,0,.22.12.42.35.62-2.98-1.31-3.26-3.44-1.63-4.02,1.41-.5,3.14-1.17,3.14-1.17-.91-4.46.49-10.43,4.6-10.43s5.51,5.98,4.6,10.43c0,0,1.72.69,3.14,1.17,1.6.53,1.36,2.68-1.6,4,.21-.19.32-.39.32-.6,0-.67-1.18-1.27-2.95-1.61M28.86,3.65c-.36-1.4-.36-1.98.85-1.98h2.65c1.76-.03,1.04,1.33.88,2.69-.1.82-.16,1.48-.18,1.99-1.42-.99-2.83-1.89-4.19-2.7M25.78,32.58c8.48,1.44,12.63-5.68,9.91-9.98-2.09-3.11-2.59-5.73-2.67-7.06-5.56-.29-9.38-.56-13.21-.62-3.83.05-7.65.32-13.21.62-.08,1.33-.58,3.95-2.67,7.06-2.72,4.3,1.43,11.42,9.91,9.98-3.6-1.36-4.04-3.69-2.12-4.43,1.4-.54,3.28-1.23,3.28-1.23-.94-4.59.69-10.64,4.81-10.64,4.13,0,5.75,6.05,4.81,10.64,0,0,1.88.69,3.28,1.23,1.93.74,1.48,3.07-2.12,4.43M19.81,14.36c-4.77.07-9.31.4-14.64.75C1.86,15.32,0,13.1,2.09,10.82,5.16,7.46,15.64.54,19.8.54s14.64,6.92,17.71,10.28c2.08,2.28.23,4.49-3.08,4.28-5.33-.35-9.86-.68-14.63-.75M28.25,3.3c-.03-.14-.07-.27-.11-.41-.23-.82-.02-1.74,1.4-1.74h3.09c1.82,0,1.62,1.25,1.31,2.47-.22.87-.4,1.97-.48,3.01,0,0,2.53,1.86,3.93,3.04,4.43,3.73,1.54,6.17-2.68,5.96-.42-.02-.84-.04-1.25-.06.03,1.24.4,3.53,2.34,6.13,4.9,5.86-1.59,13.22-10.75,11.15-1.51.5-3.92.74-5.24.74s-3.73-.23-5.24-.74c-9.17,2.07-15.66-5.29-10.75-11.15,1.94-2.61,2.31-4.89,2.34-6.14l-1.25.06c-4.22.21-7.11-2.23-2.68-5.96C8.79,4.13,16.74.02,19.8,0c1.68,0,4.85,1.26,8.45,3.3"/>
    </g>
  </g>
</svg>