<?xml version="1.0" encoding="UTF-8"?>
<svg id="Capa_1" xmlns="http://www.w3.org/2000/svg" version="1.1" viewBox="0 0 804 448">
  <!-- Generator: Adobe Illustrator 30.1.0, SVG Export Plug-In . SVG Version: 2.1.1 Build 136)  -->
  <defs>
    <style>
      .st0 {
        fill: #282828;
      }

      .st1 {
        fill: #ed1c27;
      }
    </style>
  </defs>
  <path class="st0" d="M134.1,16.1h28.3l-1.1,7.1h-19.7l-2.2,14.1h16.5l-1.1,7.1h-16.5l-2.3,14.4h21.1l-1,7.1h-29.7l7.9-49.9ZM173.5,66.8c-4,0-7.8-.8-11.4-2.4l1.1-6.7c1.5.6,3.2,1.1,5.2,1.6,2,.4,3.9.6,5.5.6s3.4-.3,4.5-.8c1.1-.6,1.7-1.5,1.7-2.8s-.4-1.7-1.2-2.4c-.8-.7-2.1-1.6-3.8-2.7-1.9-1.2-3.4-2.3-4.6-3.1-1.1-.9-2.1-2.1-3-3.5-.8-1.4-1.3-3.1-1.3-5,0-3.8,1.3-6.6,4-8.4,2.7-1.9,6.2-2.8,10.4-2.8s6.4.5,9.9,1.5l-1.1,6.7c-3.5-.9-6.7-1.3-9.4-1.3-4.1,0-6.1,1.2-6.1,3.5s.4,1.9,1.3,2.7c.9.8,2.3,1.8,4.2,3.2,2.7,1.7,4.8,3.4,6.2,5,1.5,1.6,2.2,3.6,2.2,6,0,3.7-1.4,6.5-4.1,8.3-2.7,1.9-6.1,2.8-10.3,2.8ZM207.6,66.8c-4.1,0-7.3-1.2-9.8-3.7-2.5-2.5-3.7-6.2-3.7-11s.8-8.4,2.4-12c1.6-3.6,3.9-6.4,6.8-8.5,2.9-2.1,6.1-3.1,9.7-3.1s6,.9,7.8,2.6c1.8,1.7,2.7,3.8,2.7,6.5s-.7,5.2-2.2,7.2c-1.5,2-3.5,3.5-5.9,4.6-2.4,1-4.9,1.5-7.6,1.5s-4.3-.4-5.5-1.3v2.2c0,2.8.5,4.9,1.6,6.2,1.2,1.2,2.9,1.8,5.1,1.8s6.8-1,11.5-3.1l-1,7.1c-4.3,2-8.3,3-11.9,3ZM202.6,46.4c4.3,0,7.6-.8,9.9-2.2,2.3-1.5,3.4-3.5,3.4-6s-.3-1.9-1-2.5c-.7-.6-1.5-.9-2.7-.9-2.3,0-4.4,1.1-6.2,3.2-1.7,2.1-2.9,4.9-3.5,8.4Z"/>
  <path class="st0" d="M32.1,86.2c-2.4,3.4-4.2,6.4-5.4,9-1.2,2.6-1.8,5.1-1.8,7.6s.2,2.5.7,3.5c.6.9,1.4,1.9,2.4,3.1,1.2,1.4,2.1,2.7,2.6,3.8.6,1,.8,2.4.8,4.2,0,3.4-1.1,6.1-3.2,8-2.1,1.9-4.6,2.9-7.6,2.9s-6.7-1.2-8.6-3.7c-1.9-2.5-2.9-5.8-2.9-9.8s1.1-9.2,3.2-14.4c2.2-5.3,5.1-10,8.8-14.2h10.9ZM62.4,86.2c-2.4,3.4-4.2,6.4-5.4,9-1.2,2.6-1.8,5.1-1.8,7.6s.2,2.5.7,3.5c.6.9,1.4,1.9,2.4,3.1,1.2,1.4,2.1,2.7,2.6,3.8.6,1,.8,2.4.8,4.2,0,3.4-1.1,6.1-3.2,8-2.1,1.9-4.6,2.9-7.6,2.9s-6.7-1.2-8.6-3.7c-1.9-2.5-2.9-5.8-2.9-9.8s1.1-9.2,3.2-14.4c2.2-5.3,5.1-10,8.8-14.2h10.9ZM115.2,177.3c-12.5,0-22.3-3.7-29.5-11-7.2-7.4-10.8-18.3-10.8-32.8s1.8-17.5,5.3-24.1c3.5-6.7,8.4-11.8,14.6-15.1,6.3-3.4,13.6-5.2,21.8-5.2s13,1,19.8,3v17.5c-8.2-1.9-14.5-2.9-19-2.9-6.7,0-12,2-15.8,6-3.8,4-5.6,10.9-5.6,20.6s1.8,16.5,5.5,20.4c3.7,3.9,8.9,5.9,15.6,5.9s11.1-1,19.3-2.9v17.5c-7.4,2-14.5,3-21.2,3ZM167.9,177.3c-13.4,0-20.2-7.4-20.2-22.2v-42.6h20.4v37c0,3.6.6,6.2,1.9,7.8s3.4,2.4,6.5,2.4,4.8-1,6.7-3.1c1.9-2.2,2.9-5.7,2.9-10.6v-33.5h20.4v40.7c0,4.2,0,7.9.2,11.3.2,3.4.5,7.2,1.1,11.5h-12.7c-2.7-3.4-4.9-7.2-6.5-11.6-1.8,3.8-4.5,7-8,9.4-3.4,2.4-7.7,3.6-12.7,3.6ZM260.8,176c-2.3-2.9-4.2-6.4-5.8-10.7-1.9,3.9-4.7,6.9-8.3,9-3.5,2-7.4,3-11.5,3s-9.4-1.4-12.7-4.2c-3.3-2.8-4.9-6.8-4.9-12.1s1.1-8.3,3.4-10.9c2.3-2.7,5.1-4.7,8.4-5.9,3.3-1.3,7.5-2.5,12.7-3.7,4.6-1,8-2,10.2-2.8-.6-3.2-2.1-5.5-4.6-6.8s-5.7-2-9.7-2-11,.7-17.5,2.2v-17.4c7.8-1.6,14.8-2.4,20.9-2.4,9.4,0,16.9,2.1,22.3,6.2,5.4,4.2,8.2,11.1,8.2,20.9v15c0,4.2,0,7.9.2,11.3.2,3.3.5,7.1,1.1,11.4h-12.4ZM237.3,157.4c0,1.8.5,3.1,1.4,4.1,1,.9,2.4,1.3,4.1,1.3,2.5,0,4.7-1.1,6.7-3.4,2-2.2,3-5.4,3-9.5v-1.7c-1.3.5-3.4,1.1-6.4,1.8-3.2.8-5.5,1.7-6.8,2.6-1.4.9-2,2.4-2,4.7ZM327.7,139.8c0-3.4-.8-5.9-2.4-7.7-1.6-1.8-4-2.6-7.2-2.6s-6.6,1-8.4,3.1c-1.8,2-2.6,4.5-2.6,7.6v35.9h-20.4v-37.3c0-9-.3-17.7-.8-26.2h12.8c1,1.3,2,3,3,5.3,1,2.2,1.9,4.5,2.6,7,1.4-4,3.9-7.2,7.3-9.7,3.5-2.6,8.1-3.8,13.7-3.8s12.6,2,16.7,6.1c4.1,4.1,6.1,10.2,6.1,18.4v40.3h-20.4v-36.2ZM382.9,177.3c-6.9,0-12.5-2.6-16.9-7.8-4.3-5.2-6.5-12.8-6.5-22.8s1.5-15.1,4.4-20.4c3-5.4,6.8-9.2,11.6-11.5,4.9-2.4,10.2-3.6,16-3.6s6.6.4,9.8,1.3v-26.4h20.4v67.1c0,8,.4,15.6,1.3,22.8h-12.6c-1.7-2.5-3-4.4-3.8-5.9-.9-1.5-1.7-3.5-2.5-5.9-1.9,4.1-4.8,7.3-8.5,9.6-3.7,2.3-7.9,3.5-12.7,3.5ZM379.8,144.7c0,10.2,3.3,15.4,9.8,15.4s6.2-1.1,8.4-3.4c2.2-2.2,3.4-5.8,3.4-10.7v-17.5c-3-.8-5.6-1.2-7.8-1.2-9.2,0-13.8,5.8-13.8,17.4ZM464.3,177.3c-6.6,0-12.2-1.4-16.9-4.1-4.6-2.8-8.2-6.6-10.7-11.5-2.4-4.9-3.6-10.5-3.6-16.8s1.3-12.4,3.8-17.4c2.6-5.1,6.3-9.1,11.2-12,4.9-2.9,10.7-4.3,17.4-4.3s12.2,1.4,16.8,4.2c4.7,2.7,8.3,6.5,10.7,11.4,2.5,4.9,3.7,10.5,3.7,16.8s-1.3,12.4-3.8,17.5c-2.6,5-6.3,9-11.2,11.9-4.9,2.9-10.7,4.3-17.4,4.3ZM464.9,161.2c7.7,0,11.5-5.7,11.5-17s-3.8-16.9-11.5-16.9-11.5,5.7-11.5,17,3.8,16.9,11.5,16.9Z"/>
  <path class="st0" d="M27.4,279.3c-6.9,0-14.2-1-21.8-2.9v-16.6c3.7.9,7.6,1.7,11.8,2.4,4.2.6,7.8,1,10.8,1,5,0,7.6-1,7.6-2.9s-.6-1.8-1.9-2.4c-1.3-.7-3.4-1.7-6.5-2.9-4-1.4-7.4-2.9-10.3-4.3-2.8-1.5-5.2-3.6-7.3-6.2-2.1-2.7-3.1-6.1-3.1-10.1,0-7.7,2.7-13.1,8-16.3,5.4-3.3,12.6-4.9,21.4-4.9s10.4.5,17.2,1.6v16.6c-7.1-1.3-12.9-1.9-17.4-1.9s-5.2.3-7,.8c-1.7.6-2.5,1.5-2.5,2.8s.7,2.1,2.2,3c1.4.8,3.8,1.8,7,3,4.1,1.5,7.5,3,10.2,4.4,2.8,1.4,5.2,3.4,7.2,6s3,5.8,3,9.6c0,7.2-2.6,12.4-7.9,15.6-5.3,3.1-12.1,4.7-20.4,4.7ZM96,279.3c-10.2,0-18.2-2.6-24-7.8-5.8-5.2-8.8-13.6-8.8-25.1s1.3-13,4-18c2.7-5,6.4-8.8,10.9-11.4,4.6-2.6,9.6-3.8,15.2-3.8s11.2,1.2,15.2,3.7c4.2,2.4,7.2,5.7,9.2,9.8,2,4.1,3,8.6,3,13.7s-.4,6.6-1.2,9.7h-36.2c.6,4.5,2.2,7.7,4.8,9.6,2.6,1.8,6.1,2.8,10.6,2.8s11.2-1,20.3-3v16.6c-8.5,2.2-16.2,3.2-23,3.2ZM101.3,239.8v-.5c0-3.3-.7-6-2-8.2-1.3-2.2-3.5-3.2-6.6-3.2s-5.4,1-6.8,3c-1.4,2-2.2,5-2.5,8.9h18ZM172.1,278c-2.3-2.9-4.2-6.4-5.8-10.7-1.9,3.9-4.7,6.9-8.3,9-3.5,2-7.4,3-11.5,3s-9.4-1.4-12.7-4.2c-3.3-2.8-4.9-6.8-4.9-12.1s1.1-8.3,3.4-10.9c2.3-2.7,5.1-4.7,8.4-5.9,3.3-1.3,7.5-2.5,12.7-3.7,4.6-1,8-2,10.2-2.8-.6-3.2-2.1-5.5-4.6-6.8-2.5-1.4-5.7-2-9.7-2s-11,.7-17.5,2.2v-17.4c7.8-1.6,14.8-2.4,20.9-2.4,9.4,0,16.9,2.1,22.3,6.2s8.2,11.1,8.2,20.9v15c0,4.2,0,7.9.2,11.3.2,3.3.5,7.1,1.1,11.4h-12.4ZM148.6,259.4c0,1.8.5,3.1,1.4,4.1,1,.9,2.4,1.3,4.1,1.3,2.5,0,4.7-1.1,6.7-3.4s3-5.4,3-9.5v-1.7c-1.3.5-3.4,1.1-6.4,1.8-3.2.8-5.5,1.7-6.8,2.6-1.4.9-2,2.4-2,4.7ZM242.7,259c-1.9,0-3.2.4-4,1.1-.6.6-1,1.5-1,2.6s.9,2.4,2.6,2.9c1.8.4,4.9.7,9.1,1l3,.2c7.9.5,14.1,1.9,18.6,4.3,4.6,2.3,6.8,6.6,6.8,13s-3.2,12-9.5,15.5c-6.2,3.6-15,5.4-26.2,5.4-20.3,0-30.5-5.4-30.5-16.2s1.4-6.6,4.3-8.6c2.9-2.1,6.2-3.1,10-3.1s1.7,0,2.2.1c-2-.9-3.6-2.1-4.8-3.7-1.1-1.6-1.7-3.4-1.7-5.3,0-2.9,1.1-5.2,3.4-7,2.3-1.8,5.1-2.9,8.4-3.4-5.3-1.4-9.4-4-12.2-7.8-2.9-3.8-4.3-8.4-4.3-14s2.4-12.7,7.3-16.7c5-4.1,11.7-6.1,20.3-6.1s8.1.5,11.3,1.4c.6.2,1.4.2,2.2.2,1.2,0,2-.7,2.4-2,.5-1.4.7-3.2.7-5.5s-.3-5.3-.8-7.8h17.8c.4,1.8.6,3.5.6,5,0,3.2-.7,6-2,8.4-1.4,2.3-3.1,4.1-5.3,5.3-2.1,1.2-4.3,1.8-6.6,1.8h-1.7c2.7,1.8,4.8,4.2,6.2,7s2.2,6.2,2.2,10.2-1.1,7.9-3.4,11.2-5.5,5.9-9.7,7.8c-4.2,1.9-9,2.9-14.5,2.9h-1.2ZM244.1,245.7c5.6,0,8.4-3.1,8.4-9.4s-.7-5.8-2-7.4c-1.3-1.6-3.3-2.4-6.1-2.4s-5,.7-6.4,2.2c-1.4,1.4-2,3.8-2,7.2s.7,5.6,2,7.3c1.4,1.7,3.4,2.5,6.1,2.5ZM230.6,284.1c0,2.4,1.2,4.1,3.7,5.2,2.6,1,5.7,1.6,9.5,1.6s7.4-.4,9.8-1.3c2.6-.9,3.8-2.2,3.8-4s-1.1-2.9-3.4-3.5c-2.2-.6-5.6-1-10.2-1.3-1.4,0-3-.2-4.7-.4-1.6-.2-3-.3-4.2-.5-1.4,0-2.4.4-3.2,1.1-.8.8-1.2,1.8-1.2,3.1ZM327.8,233.1c-2.4-.2-4-.2-4.9-.2-11.2,0-16.8,3.4-16.8,10.3v34.8h-20.4v-37.3c0-9-.3-17.7-.8-26.2h12.8c1.1,1.4,2.2,3.4,3.4,6,1.1,2.5,2,5.1,2.8,7.9,1.4-5,4-8.8,7.8-11.4,3.8-2.6,9.2-3.8,16.2-3.8v19.9ZM375.8,278c-2.3-2.9-4.2-6.4-5.8-10.7-1.9,3.9-4.7,6.9-8.3,9-3.5,2-7.4,3-11.5,3s-9.4-1.4-12.7-4.2c-3.3-2.8-4.9-6.8-4.9-12.1s1.1-8.3,3.4-10.9c2.3-2.7,5.1-4.7,8.4-5.9,3.3-1.3,7.5-2.5,12.7-3.7,4.6-1,8-2,10.2-2.8-.6-3.2-2.1-5.5-4.6-6.8-2.5-1.4-5.7-2-9.7-2s-11,.7-17.5,2.2v-17.4c7.8-1.6,14.8-2.4,20.9-2.4,9.4,0,16.9,2.1,22.3,6.2s8.2,11.1,8.2,20.9v15c0,4.2,0,7.9.2,11.3.2,3.3.5,7.1,1.1,11.4h-12.4ZM352.2,259.4c0,1.8.5,3.1,1.4,4.1,1,.9,2.4,1.3,4.1,1.3,2.5,0,4.7-1.1,6.7-3.4s3-5.4,3-9.5v-1.7c-1.3.5-3.4,1.1-6.4,1.8-3.2.8-5.5,1.7-6.8,2.6-1.4.9-2,2.4-2,4.7ZM442.6,241.8c0-3.4-.8-5.9-2.4-7.7-1.6-1.8-4-2.6-7.2-2.6s-6.6,1-8.4,3.1c-1.8,2-2.6,4.5-2.6,7.6v35.9h-20.4v-37.3c0-9-.3-17.7-.8-26.2h12.8c1,1.3,2,3,3,5.3,1,2.2,1.9,4.5,2.6,7,1.4-4,3.9-7.2,7.3-9.7,3.5-2.6,8.1-3.8,13.7-3.8s12.6,2,16.7,6.1c4.1,4.1,6.1,10.2,6.1,18.4v40.3h-20.4v-36.2ZM497.9,279.3c-6.9,0-12.5-2.6-16.9-7.8-4.3-5.2-6.5-12.8-6.5-22.8s1.5-15.1,4.4-20.4c3-5.4,6.8-9.2,11.6-11.5,4.9-2.4,10.2-3.6,16-3.6s6.6.4,9.8,1.3v-26.4h20.4v67.1c0,8,.4,15.6,1.3,22.8h-12.6c-1.7-2.5-3-4.4-3.8-5.9-.9-1.5-1.7-3.5-2.5-5.9-1.9,4.1-4.8,7.3-8.5,9.6-3.7,2.3-7.9,3.5-12.7,3.5ZM494.8,246.7c0,10.2,3.3,15.4,9.8,15.4s6.2-1.1,8.4-3.4c2.2-2.2,3.4-5.8,3.4-10.7v-17.5c-3-.8-5.6-1.2-7.8-1.2-9.2,0-13.8,5.8-13.8,17.4ZM580.8,279.3c-10.2,0-18.2-2.6-24-7.8-5.8-5.2-8.8-13.6-8.8-25.1s1.3-13,4-18c2.7-5,6.4-8.8,10.9-11.4,4.6-2.6,9.6-3.8,15.2-3.8s11.2,1.2,15.2,3.7c4.2,2.4,7.2,5.7,9.2,9.8,2,4.1,3,8.6,3,13.7s-.4,6.6-1.2,9.7h-36.2c.6,4.5,2.2,7.7,4.8,9.6,2.6,1.8,6.1,2.8,10.6,2.8s11.2-1,20.3-3v16.6c-8.5,2.2-16.2,3.2-23,3.2ZM586.1,239.8v-.5c0-3.3-.7-6-2-8.2-1.3-2.2-3.5-3.2-6.6-3.2s-5.4,1-6.8,3c-1.4,2-2.2,5-2.5,8.9h18ZM628.7,279.3c-3.4,0-6.4-1.1-9-3.2-2.6-2.2-3.8-5.4-3.8-9.5s1.3-7.1,3.8-9.4c2.6-2.2,5.6-3.4,9-3.4s6.3,1.1,8.8,3.4c2.6,2.2,3.8,5.4,3.8,9.4s-1.3,7.2-3.8,9.5c-2.5,2.2-5.4,3.2-8.8,3.2ZM666.1,279.3c-3.4,0-6.4-1.1-9-3.2-2.6-2.2-3.8-5.4-3.8-9.5s1.3-7.1,3.8-9.4c2.6-2.2,5.6-3.4,9-3.4s6.3,1.1,8.8,3.4c2.6,2.2,3.8,5.4,3.8,9.4s-1.3,7.2-3.8,9.5c-2.5,2.2-5.4,3.2-8.8,3.2ZM703.5,279.3c-3.4,0-6.4-1.1-9-3.2-2.6-2.2-3.8-5.4-3.8-9.5s1.3-7.1,3.8-9.4c2.6-2.2,5.6-3.4,9-3.4s6.3,1.1,8.8,3.4c2.6,2.2,3.8,5.4,3.8,9.4s-1.3,7.2-3.8,9.5c-2.5,2.2-5.4,3.2-8.8,3.2ZM725.6,229.2c2.4-3.4,4.2-6.3,5.4-8.9,1.2-2.6,1.8-5.2,1.8-7.7s-.3-2.5-.8-3.4c-.5-1-1.2-2-2.3-3.2-1.2-1.4-2.1-2.7-2.6-3.7-.6-1.1-.8-2.6-.8-4.3,0-3.4,1-6.1,3.1-8,2.2-1.9,4.7-2.9,7.7-2.9s6.7,1.2,8.6,3.7c1.9,2.5,2.9,5.8,2.9,9.8s-1.1,9.2-3.2,14.5c-2.2,5.2-5.1,9.9-8.8,14h-10.9ZM755.8,229.2c2.4-3.4,4.2-6.3,5.4-8.9,1.2-2.6,1.8-5.2,1.8-7.7s-.3-2.5-.8-3.4c-.5-1-1.2-2-2.3-3.2-1.2-1.4-2.1-2.7-2.6-3.7-.6-1.1-.8-2.6-.8-4.3,0-3.4,1-6.1,3.1-8,2.2-1.9,4.7-2.9,7.7-2.9s6.7,1.2,8.6,3.7c1.9,2.5,2.9,5.8,2.9,9.8s-1.1,9.2-3.2,14.5c-2.2,5.2-5.1,9.9-8.8,14h-10.9Z"/>
  <path class="st1" d="M335.3,431.1h-19.2l12.5-55.8h12.1l-5.4,55.8ZM339.4,344.2c3.1,0,5.5,1,7.1,2.9,1.7,1.8,2.5,4.1,2.5,6.8s-1.2,6.6-3.5,9.4c-2.3,2.6-5.4,4-9.4,4s-5.6-1-7.3-2.9c-1.6-1.9-2.4-4.2-2.4-7s1.2-6.5,3.5-9.1c2.3-2.7,5.5-4.1,9.5-4.1ZM370.2,323.4h52.6l-2.6,16.2h-32.5l-3.1,19.2h26.2l-2.6,16.2h-26l-2.9,17.8h35l-2.6,16.2h-54.8l13.6-85.6ZM448.1,410.3c-9,0-17.8-1.8-26.5-5.4l2.8-16.9c3.3,1.7,7.1,3.1,11.5,4.2,4.4,1.1,8.5,1.7,12.2,1.7s7-.7,9.4-2c2.4-1.4,3.6-3.6,3.6-6.6s-.9-3.7-2.6-5.2c-1.7-1.5-4.3-3.4-7.9-5.5-3.9-2.3-7.2-4.4-9.7-6.4-2.5-2-4.6-4.6-6.5-7.7-1.8-3.1-2.8-6.8-2.8-11.2,0-9.4,2.9-16.3,8.8-20.6,5.9-4.3,13.7-6.5,23.3-6.5s14.8,1,23.2,3.1l-2.6,16.8c-2.9-1-6.2-1.8-9.8-2.4-3.6-.7-7-1.1-10.2-1.1-8.7,0-13.1,2.6-13.1,7.9s.9,4.4,2.8,6.1c1.9,1.7,4.9,3.8,8.9,6.2,3.8,2.3,6.9,4.5,9.4,6.5,2.5,1.9,4.6,4.4,6.2,7.3,1.8,2.9,2.6,6.3,2.6,10.2,0,9.3-3.1,16.2-9.2,20.6-6.2,4.5-14,6.7-23.5,6.7ZM568.7,374.1h-28.8l-5.5,34.9h-19.9l13.6-85.6h19.9l-5.4,34.4h28.8l5.4-34.4h19.9l-13.6,85.6h-19.9l5.5-34.9ZM635.5,410.3c-10.2,0-18.2-3-24-9-5.7-6-8.5-14.4-8.5-25.2s1.7-17.6,5.2-25.8c3.4-8.3,8.6-15.1,15.4-20.3,6.8-5.3,14.9-7.9,24.4-7.9s18.2,3,23.9,9c5.8,6,8.6,14.4,8.6,25.2s-1.7,17.6-5.2,25.9c-3.4,8.2-8.6,15-15.4,20.3-6.8,5.2-14.9,7.8-24.4,7.8ZM637.8,393.9c4.9,0,9-1.8,12.5-5.4,3.4-3.6,6-8.2,7.7-13.8,1.8-5.6,2.6-11.4,2.6-17.4s-1.3-10.8-3.8-13.9c-2.5-3.2-6.2-4.8-11.2-4.8s-9,1.8-12.5,5.4-6,8.2-7.8,13.8c-1.7,5.6-2.5,11.4-2.5,17.4s1.2,10.8,3.7,14c2.6,3.1,6.3,4.7,11.3,4.7ZM703.3,380.2c-7.6-19.9-12.9-38.8-15.8-56.8h19.4c.6,6.2,1.7,13.2,3.1,21s3.1,15,4.9,21.6c7-10.7,14.5-24.9,22.4-42.6h19.4c-8.6,19.2-19.9,38.2-34.1,57.1l-4.4,28.4h-19.6l4.6-28.8ZM766.1,323.4h19.2l-12.5,55.8h-12.1l5.4-55.8ZM762,410.3c-3.1,0-5.5-.9-7.2-2.8-1.6-1.9-2.4-4.2-2.4-7s1.2-6.6,3.5-9.2c2.3-2.7,5.4-4.1,9.4-4.1s5.6,1,7.2,2.9c1.7,1.9,2.5,4.2,2.5,7s-1.2,6.5-3.5,9.2c-2.3,2.6-5.5,4-9.5,4Z"/>
</svg>