<?xml version="1.0" encoding="UTF-8"?>
<svg id="Capa_2" xmlns="http://www.w3.org/2000/svg" version="1.1" viewBox="0 0 607.4 60">
  <!-- Generator: Adobe Illustrator 30.1.0, SVG Export Plug-In . SVG Version: 2.1.1 Build 136)  -->
  <defs>
    <style>
      .st0 {
        fill: #fff;
      }
    </style>
  </defs>
  <g id="Capa_1-2">
    <path class="st0" d="M28.5,17.7l-6.5,19.7-6.8-19.7h-5.8l9.6,26.6h5.8l9.5-26.6h-5.8ZM37,17.7v26.6h5.4v-26.6s-5.4,0-5.4,0ZM71.5,40.7v-10.6h-11.7v4.5h6.2v3.4c-.8.6-1.8,1.2-2.9,1.6-1.1.4-2.3.7-3.4.7-2.3,0-4.1-.8-5.6-2.3-1.4-1.6-2.1-4-2.1-7.1s.6-5.1,2-6.6,3.3-2.3,5.7-2.3,2.8.4,3.9,1.2c1,.7,1.7,1.8,2.1,3.1l5.4-1c-.6-2.4-1.8-4.4-3.6-5.8-1.9-1.4-4.5-2.1-7.8-2.1s-4.7.5-6.4,1.4c-2.3,1.1-4,2.8-5.2,5-1.2,2.1-1.7,4.6-1.7,7.4s.5,5,1.6,7.1c1,2.2,2.6,3.8,4.6,5,2.1,1.2,4.5,1.7,7.4,1.7s4.4-.4,6.5-1.2c2.2-.8,3.8-1.8,4.9-2.9v-.2ZM76.5,17.7v26.6h5.4v-26.6s-5.4,0-5.4,0ZM92.7,17.9h-5.4v26.5h18.8v-4.5h-13.4v-22h0ZM117.7,17.7l-10.4,26.6h5.8l2.2-6h10.7l2.4,6h5.9l-10.7-26.6h-5.9ZM124.2,33.8h-7.3l3.6-9.9,3.7,9.9h0ZM147.2,44.2c2,0,3.6-.2,4.8-.5,1.6-.5,2.9-1.2,3.8-2.2,1.3-1.2,2.2-2.7,2.9-4.7.5-1.6.8-3.4.8-5.6s-.2-4.6-.9-6.3c-.6-1.7-1.4-3.2-2.5-4.3-1.1-1.2-2.5-2-4.1-2.4-1.2-.4-2.9-.5-5.1-.5h-9.9v26.6h10.2ZM142.4,39.8v-17.6h2.4c2.2,0,3.7,0,4.5.2,1,.3,1.8.6,2.5,1.3.6.6,1.2,1.5,1.5,2.6.4,1.1.5,2.6.5,4.8s-.1,3.7-.5,4.9c-.3,1.2-.8,2-1.4,2.5s-1.3.9-2.2,1.1c-.6.2-1.7.3-3.2.3h-4.1ZM189,31.1c0-4.4-1.2-7.7-3.5-10.1-2.4-2.5-5.5-3.7-9.5-3.7s-4.1.3-5.8,1.1c-1.3.5-2.4,1.3-3.5,2.4-1,1-1.8,2.3-2.4,3.6-.8,1.8-1.3,4.1-1.3,6.8,0,4.2,1.2,7.6,3.5,9.9,2.4,2.4,5.5,3.6,9.5,3.6s7-1.2,9.4-3.6c2.4-2.4,3.5-5.8,3.5-10.1h0ZM170.7,37.9c-1.4-1.6-2.1-3.9-2.1-6.9s.7-5.4,2.1-6.9c1.3-1.5,3.1-2.3,5.4-2.3s4,.8,5.3,2.3c1.4,1.5,2,3.8,2,6.8s-.7,5.4-2.1,7c-1.4,1.5-3.1,2.3-5.3,2.3s-4-.8-5.3-2.3h0ZM0,0v5.8h198.4V0H0ZM340.7,52c.6-.4,1.1-.9,1.5-1.5.5-.6.8-1.5,1.2-2.5.3-1,.5-2.1.5-3.4s-.2-2.8-.7-4-1.1-2.1-2-2.9c-.7-.6-1.5-1-2.5-1.2-.7-.2-1.7-.3-3.1-.3h-5.9v16.9h6.1c1,0,2,0,2.7-.3.8-.2,1.4-.5,2-.8h.2ZM332.1,51v-12.9h3.6c1.3,0,2.3,0,2.9.3.8.3,1.5,1,2.1,1.9s.9,2.3.9,4-.1,2.4-.5,3.3c-.3.9-.7,1.7-1.2,2.2-.4.4-.9.7-1.5.9s-1.5.3-2.7.3h-3.6,0ZM349.3,51v-5.8h9.4v-2h-9.4v-5.1h10.1v-2h-12.3v16.9h12.7v-2h-10.5ZM383.9,47.7l-2.2-.5c-.3,1.4-.9,2.5-1.8,3.2-.9.7-1.9,1.1-3.2,1.1s-2-.2-2.9-.8-1.6-1.3-2-2.5c-.4-1-.6-2.3-.6-3.8s.2-2.2.5-3.2c.4-1.1,1-1.9,1.9-2.6.9-.6,2-.9,3.2-.9s2.1.3,2.8.8c.8.6,1.4,1.5,1.7,2.7l2.2-.5c-.5-1.6-1.3-2.8-2.4-3.6-1.1-.9-2.6-1.3-4.3-1.3s-2.9.4-4.1,1c-1.3.7-2.2,1.7-2.9,3s-1,2.8-1,4.6.3,3.2.9,4.6c.6,1.4,1.5,2.5,2.6,3.3,1.1.7,2.6,1.1,4.5,1.1s3.3-.5,4.5-1.4c1.2-1,2.1-2.4,2.6-4.2h0ZM401.2,49.2c.7-1.3,1-2.9,1-4.6s-.3-3.2-.9-4.6c-.7-1.3-1.7-2.3-2.9-3.1-1.3-.8-2.7-1.1-4.2-1.1-2.4,0-4.4.8-5.9,2.4-1.5,1.6-2.3,3.8-2.3,6.6s.3,2.9,1,4.3c.6,1.3,1.6,2.4,2.9,3.1,1.2.8,2.7,1.1,4.3,1.1s2.9-.3,4.2-1.1c1.3-.7,2.3-1.7,2.9-3h-.1ZM390,49.7c-1.1-1.2-1.7-2.8-1.7-4.8s.6-4.4,1.7-5.5c1.2-1.1,2.6-1.6,4.1-1.6s2.1.3,3,.8c.9.6,1.6,1.4,2.1,2.4.5,1.1.7,2.2.7,3.6,0,2.2-.6,3.9-1.6,5-1.1,1.2-2.5,1.8-4.2,1.8s-3-.6-4.1-1.8h0ZM415.7,53v-2h-8.4v-14.9h-2.3v16.9h10.7ZM432.9,49.2c.7-1.3,1.1-2.9,1.1-4.6s-.3-3.2-1-4.6c-.7-1.3-1.6-2.3-2.9-3.1-1.3-.8-2.7-1.1-4.2-1.1-2.4,0-4.4.8-5.9,2.4-1.5,1.6-2.3,3.8-2.3,6.6s.3,2.9,1,4.3c.6,1.3,1.6,2.4,2.9,3.1,1.3.8,2.7,1.1,4.3,1.1s2.9-.3,4.1-1.1c1.3-.7,2.2-1.7,3-3h-.1ZM421.7,49.7c-1.1-1.2-1.6-2.8-1.6-4.8s.6-4.4,1.7-5.5c1.1-1.1,2.6-1.6,4.2-1.6s2.1.3,3.1.8c.9.6,1.5,1.4,2,2.4.5,1.1.7,2.2.7,3.6,0,2.2-.5,3.9-1.6,5-1.1,1.2-2.5,1.8-4.2,1.8s-3-.6-4.1-1.8h-.2ZM439,53v-14.4l4.9,14.4h2.1l4.9-14.1v14.1h2.2v-16.9h-3l-4.1,11.8c-.4,1.2-.7,2.1-.9,2.8-.2-.6-.4-1.4-.8-2.5l-4-12h-3.4v16.9h2.2,0ZM463.1,53c1,0,2,0,2.7-.3.8-.2,1.4-.5,1.9-.8.5-.4.9-.9,1.2-1.6.4-.7.6-1.4.6-2.2s-.4-1.8-.9-2.5-1.3-1.3-2.3-1.6c.8-.4,1.4-.8,1.8-1.5.3-.7.6-1.3.6-2s-.2-1.5-.6-2.2c-.5-.7-1.1-1.2-1.8-1.6-.8-.3-1.8-.5-3.2-.5h-6.4v16.9h6.5-.1ZM458.8,43.2v-5.1h3.4c1.2,0,2.1,0,2.6.2s.9.5,1.2.9c.3.5.4,1,.4,1.5s-.1,1.1-.5,1.5c-.3.4-.7.7-1.3.8-.4.2-1.1.2-2.1.2h-3.7,0ZM458.8,51v-5.8h4c1.1,0,1.9,0,2.5.3.6.2,1,.5,1.3,1,.4.4.5,1,.5,1.6s-.1,1-.3,1.5c-.2.4-.5.7-.9.9-.3.2-.8.4-1.3.5h-5.8ZM475.2,53v-16.9h-2.2v16.9h2.2ZM479.7,53l1.9-5.1h7.1l2,5.1h2.5l-6.9-16.9h-2.4l-6.5,16.9h2.4,0ZM482.2,46.2l1.9-5c.4-1.1.7-2.1.9-3.2.3.9.7,2.1,1.2,3.5l1.8,4.7h-5.8ZM225.7,18.6c.3.4.4.8.4,1.4s-.2,1-.5,1.5c-.3.4-.8.8-1.5,1-.6.3-1.5.4-2.3.4s-1.8-.2-2.6-.5c-.7-.3-1.3-.8-1.7-1.3-.4-.5-.6-1.2-.7-2.1l-2.1.2c0,1.2.3,2.2.9,3.1.5.9,1.4,1.5,2.4,2,1.1.5,2.4.7,3.9.7s2.3-.2,3.3-.7c1-.4,1.7-1.1,2.2-1.9s.8-1.6.8-2.5-.2-1.7-.7-2.4c-.5-.7-1.2-1.3-2.2-1.7-.7-.3-1.9-.6-3.8-1.1-1.9-.4-3-.8-3.4-1.2s-.6-.9-.6-1.5.3-1.3.9-1.8c.7-.5,1.6-.8,3-.8s2.3.3,3,.9c.7.5,1.1,1.3,1.2,2.4h2.2c0-1.1-.3-2-.8-2.8s-1.2-1.4-2.2-1.8c-1-.4-2.1-.6-3.3-.6s-2.2.2-3.1.6c-.9.4-1.6.9-2.1,1.7-.5.7-.7,1.6-.7,2.4s.2,1.5.6,2c.4.7,1,1.2,1.8,1.6.6.3,1.7.7,3.3,1,1.6.4,2.6.6,3,.8.7.3,1.2.6,1.6,1h-.2ZM234.1,20.6c-.3-.7-.4-1.8-.4-3.3V7.6h-2.2v9.8c0,1.8.3,3.2.6,4.2.5,1.1,1.2,1.9,2.2,2.4s2.3.8,3.9.8,3-.3,4-1c1-.6,1.7-1.4,2.1-2.4s.6-2.4.6-4.1V7.6h-2.2v9.8c0,2.1-.4,3.5-1.1,4.3-.7.8-1.9,1.1-3.5,1.1s-1.8-.2-2.5-.6-1.1-.9-1.4-1.6h-.1ZM248.6,7.6v16.9h2.2v-6.9h4.4c2.5,0,4.1-.5,5-1.5s1.4-2.2,1.4-3.7-.2-1.6-.5-2.3c-.4-.7-.8-1.3-1.3-1.6-.5-.4-1.3-.7-2.1-.8-.6,0-1.5-.2-2.6-.2h-6.5ZM255.1,9.6c1,0,1.8,0,2.1.2.6.2,1.1.5,1.5,1,.3.5.5,1.1.5,1.8s-.3,1.8-.9,2.3c-.6.6-1.7.8-3.1.8h-4.4v-6.1h4.4-.1ZM264.5,7.6v16.9h12.7v-2h-10.5v-5.8h9.4v-2h-9.4v-5.2h10.1v-2h-12.3ZM280.3,7.6v16.9h2.2v-7.5h3.8c.4.1.7.2,1,.5.3.2.7.6,1.1,1.1.4.6,1,1.3,1.6,2.3l2.3,3.5h2.8l-2.9-4.6c-.6-.9-1.2-1.7-1.9-2.2-.3-.3-.8-.6-1.3-.9,1.6-.2,2.9-.8,3.6-1.6.8-.8,1.1-1.8,1.1-3s-.2-1.8-.7-2.5c-.5-.8-1.1-1.3-1.9-1.6-.8-.3-1.9-.4-3.5-.4h-7.5.2ZM288,9.5c1.3,0,2.2.2,2.8.8.6.5.9,1.2.9,2s-.1,1.1-.5,1.6c-.3.4-.7.8-1.3,1-.6.2-1.4.3-2.4.3h-4.8v-5.6h5.4-.1ZM297.9,7.6v16.9h2.2V7.6h-2.2ZM304,7.6v16.9h2.2v-13.3l8.9,13.3h2.3V7.6h-2.2v13.3l-8.9-13.3h-2.3ZM320,7.6v2h5.6v14.9h2.3v-14.9h5.6v-2s-13.5,0-13.5,0ZM335.8,7.6v16.9h12.7v-2h-10.4v-5.8h9.4v-2h-9.4v-5.2h10v-2h-12.3ZM351.6,7.6v16.9h2.2v-13.3l8.9,13.3h2.3V7.6h-2.2v13.3l-8.9-13.3h-2.4,0ZM368.8,7.6v16.9h6.1c1,0,1.9,0,2.7-.2s1.5-.5,2-.9c.6-.4,1.1-.9,1.6-1.5.5-.7.9-1.5,1.2-2.5s.5-2.1.5-3.4-.2-2.8-.7-4c-.4-1.2-1.1-2.2-2-2.9-.7-.6-1.5-1-2.5-1.2-.7-.2-1.7-.3-3.1-.3h-5.9,0ZM374.6,9.6c1.3,0,2.3.1,2.9.4.9.3,1.6,1,2.1,1.9.6,1,.9,2.4.9,4.1s-.1,2.4-.4,3.3c-.3.8-.7,1.5-1.3,2.1-.4.4-.9.7-1.5.9-.6.2-1.5.3-2.6.3h-3.6v-12.9h3.6,0ZM386.1,7.6v16.9h12.7v-2h-10.4v-5.8h9.4v-2h-9.4v-5.2h10.1v-2h-12.4ZM401.8,7.6v16.9h2.1v-13.3l9,13.3h2.3V7.6h-2.1v13.3l-8.9-13.3h-2.4ZM419.4,11.3c-.7,1.3-1,2.9-1,4.6s.3,3.1.9,4.5c.6,1.4,1.5,2.5,2.6,3.2,1.2.7,2.6,1.1,4.5,1.1s3.3-.5,4.5-1.5c1.2-.9,2.1-2.3,2.6-4.2l-2.3-.6c-.3,1.4-.9,2.5-1.8,3.2-.9.8-1.9,1.1-3.2,1.1s-2-.3-2.9-.8-1.5-1.3-1.9-2.4c-.4-1-.6-2.3-.6-3.8s.2-2.2.5-3.2c.4-1.1,1-1.9,1.8-2.5.9-.6,2-.9,3.3-.9s2.1.3,2.8.9c.7.6,1.3,1.4,1.7,2.7l2.2-.5c-.4-1.6-1.2-2.8-2.4-3.6-1.2-.9-2.6-1.3-4.3-1.3s-2.9.3-4.1,1c-1.3.6-2.2,1.6-2.9,3h0ZM436.6,7.6v16.9h2.2V7.6h-2.2ZM454.3,24.5h2.5l-6.9-16.9h-2.4l-6.6,16.9h2.4l1.9-5.1h7.1l2,5.1h0ZM445.9,17.6l1.9-5c.4-1.1.7-2.1.9-3.2.2.9.7,2.1,1.2,3.5l1.8,4.7h-5.8,0ZM467.6,24.5v-7.7h8v-2h-8v-5.3h9.3v-2h-11.5v16.9h2.2ZM482.4,24.5V7.6h-2.3v16.9h2.3ZM499.8,24.5V7.6h-2.2v13.3l-8.9-13.3h-2.3v16.9h2.2v-13.3l8.9,13.3h2.3ZM515.1,24.5h2.5l-6.9-16.9h-2.4l-6.5,16.9h2.4l1.8-5.1h7.1l2,5.1h0ZM506.6,17.6l1.9-5c.4-1.1.7-2.1,1-3.2.2.9.7,2.1,1.2,3.5l1.7,4.7h-5.8,0ZM532.8,24.5V7.6h-2.2v13.3l-9-13.3h-2.3v16.9h2.2v-13.3l8.9,13.3h2.4ZM537,11.3c-.7,1.3-1,2.9-1,4.6s.3,3.1.9,4.5,1.5,2.5,2.6,3.2,2.7,1.1,4.5,1.1,3.3-.5,4.5-1.5c1.2-.9,2.1-2.3,2.5-4.2l-2.2-.6c-.3,1.4-.9,2.5-1.8,3.2-.9.8-1.9,1.1-3.2,1.1s-2-.3-2.9-.8-1.6-1.3-2-2.4c-.4-1-.6-2.3-.6-3.8s.2-2.2.5-3.2c.4-1.1,1-1.9,1.9-2.5s2-.9,3.3-.9,2.1.3,2.8.9c.8.6,1.3,1.4,1.7,2.7l2.2-.5c-.4-1.6-1.2-2.8-2.4-3.6-1.2-.9-2.6-1.3-4.3-1.3s-2.9.3-4.1,1c-1.3.6-2.2,1.6-2.9,3h0ZM556.5,24.5V7.6h-2.3v16.9h2.3ZM573.2,24.5v-2h-10.4v-5.8h9.4v-2h-9.4v-5.2h10v-2h-12.3v16.9h12.7,0ZM578.6,24.5v-7.5h3.8c.4.1.7.2,1.1.5.3.2.7.6,1.1,1.1.5.6,1,1.3,1.6,2.3l2.3,3.5h2.9l-3-4.6c-.6-.9-1.2-1.7-1.9-2.2-.3-.3-.7-.6-1.3-.9,1.6-.2,2.9-.8,3.6-1.6.8-.8,1.2-1.8,1.2-3s-.2-1.8-.7-2.5c-.5-.8-1.1-1.3-1.9-1.6-.8-.3-1.9-.4-3.5-.4h-7.5v16.9h2.3-.1ZM578.6,15.1v-5.6h5.4c1.3,0,2.2.2,2.8.8.5.5.8,1.2.8,2s-.2,1.1-.4,1.6c-.4.4-.8.8-1.3,1-.6.2-1.4.3-2.4.3h-4.9ZM593.9,24.5l1.9-5.1h7.1l2,5.1h2.6l-7-16.9h-2.4l-6.5,16.9h2.4-.1ZM596.5,17.6l1.9-5c.4-1.1.7-2.1.9-3.2.2.9.6,2.1,1.2,3.5l1.8,4.7h-5.8,0ZM198.5,54.2H0v5.8h198.4v-5.8h0Z"/>
  </g>
</svg>